<svg width="58" height="73" viewBox="0 0 58 73" fill="none" xmlns="http://www.w3.org/2000/svg">
<path d="M28.6468 0.908219C24.8574 0.730492 21.0726 1.34593 17.5348 2.71515C13.9969 4.08436 10.7839 6.17718 8.10146 8.85963C5.419 11.5421 3.32618 14.7551 1.95697 18.2929C0.587755 21.8308 -0.0276866 25.6155 0.150041 29.4049C0.150041 38.3814 7.27422 47.2154 10.8363 50.7775C14.3984 54.3396 28.6468 72.15 28.6468 72.15C28.6468 72.15 42.8951 54.3396 46.4572 50.7775C50.0193 47.2154 57.1435 38.3814 57.1435 29.4049C57.3212 25.6155 56.7058 21.8308 55.3366 18.2929C53.9673 14.7551 51.8745 11.5421 49.1921 8.85963C46.5096 6.17718 43.2966 4.08436 39.7588 2.71515C36.2209 1.34593 32.4362 0.730492 28.6468 0.908219ZM28.6468 40.9817C26.3571 40.9817 24.1188 40.3028 22.215 39.0307C20.3112 37.7586 18.8274 35.9506 17.9512 33.8352C17.075 31.7198 16.8457 29.3921 17.2924 27.1464C17.7391 24.9007 18.8417 22.838 20.4607 21.2189C22.0798 19.5999 24.1426 18.4973 26.3882 18.0506C28.6339 17.6039 30.9616 17.8332 33.077 18.7094C35.1924 19.5856 37.0004 21.0694 38.2725 22.9732C39.5446 24.877 40.2236 27.1153 40.2236 29.4049C40.2236 30.9252 39.9241 32.4306 39.3423 33.8352C38.7605 35.2398 37.9078 36.516 36.8328 37.591C35.7578 38.666 34.4816 39.5187 33.077 40.1005C31.6725 40.6823 30.1671 40.9817 28.6468 40.9817Z" fill="#EC2D24"/>
<circle cx="28.647" cy="28.6119" r="12.6553" fill="white"/>
</svg>
