<svg width="32" height="32" viewBox="0 0 32 32" fill="none" xmlns="http://www.w3.org/2000/svg">
<rect width="32" height="32" fill="#0C74B5"/>
<path fill-rule="evenodd" clip-rule="evenodd" d="M7.60825 9.3237C8.10544 8.27024 9.27791 7.2818 10.2788 7.07233C10.748 6.97408 11.8618 7.0312 12.4502 7.18364C12.6646 7.2392 13.3935 7.5204 14.0698 7.80852C14.7463 8.09665 15.6602 8.43652 16.1006 8.56362L16.9015 8.79492L16.4304 9.09708C15.8852 9.44661 15.1868 9.62927 14.7231 9.54369C14.5452 9.51084 13.9405 9.26073 13.3794 8.98791C12.4234 8.52308 12.3038 8.48955 11.4787 8.45495C10.6625 8.42073 10.5598 8.43828 10.0717 8.69511C8.77955 9.37516 8.19502 11.231 8.49552 13.6993C8.75304 15.8155 9.92014 19.8501 10.8011 21.6699C11.7909 23.7147 12.5889 24.3997 13.3153 23.8283C13.6142 23.5932 14.2619 22.2969 14.504 21.4491C14.614 21.0637 14.7807 20.7552 14.9939 20.5419C15.2831 20.2527 15.3661 20.2219 15.7843 20.2486L16.2515 20.2786L16.2263 20.6197C16.1552 21.5797 15.1592 23.9232 14.4954 24.6924C13.7642 25.5397 12.7401 25.7472 11.9088 25.2166C10.4428 24.2807 8.94486 21.5415 7.86615 17.8239C7.13727 15.3117 7.0052 14.5415 7.00013 12.7734C6.99526 11.0773 7.12333 10.351 7.60825 9.3237ZM18.8777 15.0666C19.3112 14.8519 19.8845 14.4804 20.1518 14.2409C20.5396 13.8934 20.6461 13.7975 20.6753 13.8171C20.6867 13.8247 20.6864 13.8496 20.6864 13.8839C20.6864 14.0695 19.1443 15.548 18.5563 15.9262C17.4965 16.6079 16.9904 16.7596 15.7642 16.7634C14.727 16.7665 14.6671 16.7548 13.9305 16.4061C13.1785 16.0501 12.2373 15.3707 11.6727 14.7765L11.3826 14.471L12.2087 14.8581C13.4164 15.4237 14.3267 15.6556 15.5692 15.7144C16.9104 15.778 17.7891 15.6059 18.8777 15.0666Z" fill="white"/>
<path d="M20.1118 7.12233C19.2281 7.36971 18.6392 7.76076 17.6578 8.75184C16.4031 10.0189 15.9531 10.2369 14.5945 10.2357C13.855 10.2351 13.4846 10.1862 13.0594 10.0329C12.4276 9.8051 12.3497 9.86115 12.8157 10.2083C13.7762 10.924 14.6452 11.2094 15.6643 11.144C16.5673 11.0861 17.2665 10.7653 18.2333 9.96544C19.7255 8.73098 20.3353 8.42346 21.299 8.41898C22.0151 8.41576 22.6894 8.7343 23.383 9.40362C24.5977 10.5757 24.9251 12.2892 24.4942 15.2183C24.1376 17.6414 23.4401 19.7322 22.1308 22.3026C21.4589 23.6214 21.1403 23.9377 20.4143 24.0067C20.0462 24.0417 19.9016 24.0079 19.6837 23.8359C19.2744 23.5127 18.8851 22.6452 18.5624 21.337C18.2015 19.8732 18.0386 19.5268 17.5387 19.1591C16.7839 18.604 16.1175 18.653 15.4585 19.3119C15.2246 19.5459 15.0331 19.7714 15.0331 19.813C15.0331 19.8547 15.3393 19.8887 15.7136 19.8887C16.3404 19.8887 16.4167 19.9117 16.6828 20.1811C16.9233 20.4246 17.0307 20.7098 17.325 21.8868C17.749 23.5821 17.9154 23.9819 18.4294 24.5395C18.9957 25.1538 19.6189 25.4425 20.3508 25.4295C21.6221 25.4068 22.5709 24.56 23.4207 22.6897C24.4254 20.4787 25.4131 17.698 25.7828 16.0398C26.079 14.7112 26.0708 12.1487 25.7668 11.0189C25.3618 9.51376 24.7822 8.6264 23.7396 7.91555C22.5432 7.09992 21.2229 6.81121 20.1118 7.12233Z" fill="#FEAD54"/>
</svg>
