<svg width="26" height="33" viewBox="0 0 26 33" fill="none" xmlns="http://www.w3.org/2000/svg">
<path d="M12.9644 0.428223C9.63135 0.432004 6.43593 1.75772 4.07912 4.11452C1.72232 6.47133 0.396603 9.66675 0.392822 12.9998C0.392822 23.757 11.8215 31.8814 12.3087 32.2214C12.5008 32.356 12.7298 32.4282 12.9644 32.4282C13.199 32.4282 13.4279 32.356 13.6201 32.2214C14.1072 31.8814 25.5359 23.757 25.5359 12.9998C25.5321 9.66675 24.2064 6.47133 21.8496 4.11452C19.4928 1.75772 16.2974 0.432004 12.9644 0.428223ZM12.9644 8.4283C13.8685 8.4283 14.7524 8.69642 15.5042 9.19874C16.2559 9.70106 16.8419 10.415 17.1879 11.2503C17.5339 12.0857 17.6244 13.0048 17.448 13.8916C17.2716 14.7784 16.8362 15.593 16.1969 16.2323C15.5576 16.8716 14.743 17.307 13.8562 17.4834C12.9694 17.6598 12.0503 17.5693 11.2149 17.2233C10.3796 16.8773 9.66565 16.2913 9.16333 15.5396C8.66101 14.7878 8.3929 13.9039 8.3929 12.9998C8.3929 11.7873 8.87454 10.6246 9.73186 9.76726C10.5892 8.90994 11.7519 8.4283 12.9644 8.4283Z" fill="#FFC000"/>
<circle cx="12.9644" cy="12.8299" r="5.16546" fill="black"/>
</svg>
